<?xml version="1.0" encoding="UTF-8"?>
<svg xmlns="http://www.w3.org/2000/svg" xmlns:xlink="http://www.w3.org/1999/xlink" width="50pt" height="50pt" viewBox="0 0 50 50" version="1.1">
<g id="surface1">
<path style=" stroke:none;fill-rule:nonzero;fill:rgb(100%,45.098039%,40%);fill-opacity:1;" d="M 25 45.117188 L 11.59375 25.054688 C 9.824219 22.40625 8.886719 19.3125 8.886719 16.113281 C 8.886719 7.226562 16.113281 0 25 0 C 33.886719 0 41.113281 7.226562 41.113281 16.113281 C 41.113281 19.3125 40.179688 22.40625 38.40625 25.054688 Z M 25 45.117188 "/>
<path style=" stroke:none;fill-rule:nonzero;fill:rgb(36.078431%,90.196078%,81.176471%);fill-opacity:1;" d="M 17.675781 47.070312 L 32.324219 47.070312 L 32.324219 50 L 17.675781 50 Z M 17.675781 47.070312 "/>
<path style=" stroke:none;fill-rule:nonzero;fill:rgb(23.921569%,80%,75.294118%);fill-opacity:1;" d="M 25 47.070312 L 32.324219 47.070312 L 32.324219 50 L 25 50 Z M 25 47.070312 "/>
<path style=" stroke:none;fill-rule:nonzero;fill:rgb(90.196078%,27.058824%,35.294118%);fill-opacity:1;" d="M 38.40625 25.054688 C 40.175781 22.40625 41.113281 19.3125 41.113281 16.113281 C 41.113281 7.226562 33.886719 0 25 0 L 25 45.117188 Z M 38.40625 25.054688 "/>
<path style=" stroke:none;fill-rule:nonzero;fill:rgb(90.196078%,94.901961%,94.901961%);fill-opacity:1;" d="M 25 26.367188 C 19.347656 26.367188 14.746094 21.765625 14.746094 16.113281 C 14.746094 10.460938 19.347656 5.859375 25 5.859375 C 30.652344 5.859375 35.253906 10.460938 35.253906 16.113281 C 35.253906 21.765625 30.652344 26.367188 25 26.367188 Z M 25 26.367188 "/>
<path style=" stroke:none;fill-rule:nonzero;fill:rgb(81.176471%,90.196078%,90.196078%);fill-opacity:1;" d="M 35.253906 16.113281 C 35.253906 10.460938 30.652344 5.859375 25 5.859375 L 25 26.367188 C 30.652344 26.367188 35.253906 21.765625 35.253906 16.113281 Z M 35.253906 16.113281 "/>
<path style=" stroke:none;fill-rule:nonzero;fill:rgb(100%,45.098039%,40%);fill-opacity:1;" d="M 29.394531 14.648438 L 26.464844 14.648438 L 26.464844 11.71875 L 23.535156 11.71875 L 23.535156 14.648438 L 20.605469 14.648438 L 20.605469 17.578125 L 23.535156 17.578125 L 23.535156 20.507812 L 26.464844 20.507812 L 26.464844 17.578125 L 29.394531 17.578125 Z M 29.394531 14.648438 "/>
<path style=" stroke:none;fill-rule:nonzero;fill:rgb(90.196078%,27.058824%,35.294118%);fill-opacity:1;" d="M 25 11.71875 L 25 20.507812 L 26.464844 20.507812 L 26.464844 17.578125 L 29.394531 17.578125 L 29.394531 14.648438 L 26.464844 14.648438 L 26.464844 11.71875 Z M 25 11.71875 "/>
</g>
</svg>
