<?xml version="1.0" encoding="UTF-8"?>
<svg xmlns="http://www.w3.org/2000/svg" xmlns:xlink="http://www.w3.org/1999/xlink" width="20pt" height="20pt" viewBox="0 0 20 20" version="1.1">
<g id="surface1">
<path style=" stroke:none;fill-rule:nonzero;fill:rgb(100%,45.098039%,40%);fill-opacity:1;" d="M 10 18.046875 L 4.636719 10.023438 C 3.929688 8.960938 3.554688 7.726562 3.554688 6.445312 C 3.554688 2.890625 6.445312 0 10 0 C 13.554688 0 16.445312 2.890625 16.445312 6.445312 C 16.445312 7.726562 16.070312 8.960938 15.363281 10.023438 Z M 10 18.046875 "/>
<path style=" stroke:none;fill-rule:nonzero;fill:rgb(36.078431%,90.196078%,81.176471%);fill-opacity:1;" d="M 7.070312 18.828125 L 12.929688 18.828125 L 12.929688 20 L 7.070312 20 Z M 7.070312 18.828125 "/>
<path style=" stroke:none;fill-rule:nonzero;fill:rgb(23.921569%,80%,75.294118%);fill-opacity:1;" d="M 10 18.828125 L 12.929688 18.828125 L 12.929688 20 L 10 20 Z M 10 18.828125 "/>
<path style=" stroke:none;fill-rule:nonzero;fill:rgb(90.196078%,27.058824%,35.294118%);fill-opacity:1;" d="M 15.363281 10.023438 C 16.070312 8.960938 16.445312 7.726562 16.445312 6.445312 C 16.445312 2.890625 13.554688 0 10 0 L 10 18.046875 Z M 15.363281 10.023438 "/>
<path style=" stroke:none;fill-rule:nonzero;fill:rgb(90.196078%,94.901961%,94.901961%);fill-opacity:1;" d="M 10 10.546875 C 7.738281 10.546875 5.898438 8.707031 5.898438 6.445312 C 5.898438 4.183594 7.738281 2.34375 10 2.34375 C 12.261719 2.34375 14.101562 4.183594 14.101562 6.445312 C 14.101562 8.707031 12.261719 10.546875 10 10.546875 Z M 10 10.546875 "/>
<path style=" stroke:none;fill-rule:nonzero;fill:rgb(81.176471%,90.196078%,90.196078%);fill-opacity:1;" d="M 14.101562 6.445312 C 14.101562 4.183594 12.261719 2.34375 10 2.34375 L 10 10.546875 C 12.261719 10.546875 14.101562 8.707031 14.101562 6.445312 Z M 14.101562 6.445312 "/>
<path style=" stroke:none;fill-rule:nonzero;fill:rgb(100%,45.098039%,40%);fill-opacity:1;" d="M 11.757812 5.859375 L 10.585938 5.859375 L 10.585938 4.6875 L 9.414062 4.6875 L 9.414062 5.859375 L 8.242188 5.859375 L 8.242188 7.03125 L 9.414062 7.03125 L 9.414062 8.203125 L 10.585938 8.203125 L 10.585938 7.03125 L 11.757812 7.03125 Z M 11.757812 5.859375 "/>
<path style=" stroke:none;fill-rule:nonzero;fill:rgb(90.196078%,27.058824%,35.294118%);fill-opacity:1;" d="M 10 4.6875 L 10 8.203125 L 10.585938 8.203125 L 10.585938 7.03125 L 11.757812 7.03125 L 11.757812 5.859375 L 10.585938 5.859375 L 10.585938 4.6875 Z M 10 4.6875 "/>
</g>
</svg>
