<svg id="Capa_1" enable-background="new 0 0 512 512" height="512" viewBox="0 0 512 512" width="512" xmlns="http://www.w3.org/2000/svg"><g><g><path d="m256 461.997-137.271-205.43c-18.149-27.129-27.729-58.798-27.729-91.567 0-90.981 74.019-165 165-165s165 74.019 165 165c0 32.769-9.58 64.438-27.729 91.567z" fill="#ff7366"/></g><g id="Medical_Location_2_"><g><path d="m181 482h150v30h-150z" fill="#5ce6cf"/></g></g><g><path d="m256 482h75v30h-75z" fill="#3dccc0"/><path d="m393.271 256.567c18.149-27.129 27.729-58.798 27.729-91.567 0-90.981-74.019-165-165-165v461.997z" fill="#e6455a"/></g><g><path d="m256 270c-57.891 0-105-47.109-105-105s47.109-105 105-105 105 47.109 105 105-47.109 105-105 105z" fill="#e6f2f2"/></g><path d="m361 165c0-57.891-47.109-105-105-105v210c57.891 0 105-47.109 105-105z" fill="#cfe6e6"/><path d="m301 150h-30v-30h-30v30h-30v30h30v30h30v-30h30z" fill="#ff7366"/><path d="m256 120v90h15v-30h30v-30h-30v-30z" fill="#e6455a"/></g></svg>