<?xml version="1.0" encoding="UTF-8"?>
<svg xmlns="http://www.w3.org/2000/svg" xmlns:xlink="http://www.w3.org/1999/xlink" width="40pt" height="40pt" viewBox="0 0 40 40" version="1.1">
<g id="surface1">
<path style=" stroke:none;fill-rule:nonzero;fill:rgb(100%,45.098039%,40%);fill-opacity:1;" d="M 20 36.09375 L 9.277344 20.042969 C 7.859375 17.925781 7.109375 15.449219 7.109375 12.890625 C 7.109375 5.78125 12.890625 0 20 0 C 27.109375 0 32.890625 5.78125 32.890625 12.890625 C 32.890625 15.449219 32.140625 17.925781 30.722656 20.042969 Z M 20 36.09375 "/>
<path style=" stroke:none;fill-rule:nonzero;fill:rgb(36.078431%,90.196078%,81.176471%);fill-opacity:1;" d="M 14.140625 37.65625 L 25.859375 37.65625 L 25.859375 40 L 14.140625 40 Z M 14.140625 37.65625 "/>
<path style=" stroke:none;fill-rule:nonzero;fill:rgb(23.921569%,80%,75.294118%);fill-opacity:1;" d="M 20 37.65625 L 25.859375 37.65625 L 25.859375 40 L 20 40 Z M 20 37.65625 "/>
<path style=" stroke:none;fill-rule:nonzero;fill:rgb(90.196078%,27.058824%,35.294118%);fill-opacity:1;" d="M 30.722656 20.042969 C 32.140625 17.925781 32.890625 15.449219 32.890625 12.890625 C 32.890625 5.78125 27.109375 0 20 0 L 20 36.09375 Z M 30.722656 20.042969 "/>
<path style=" stroke:none;fill-rule:nonzero;fill:rgb(90.196078%,94.901961%,94.901961%);fill-opacity:1;" d="M 20 21.09375 C 15.476562 21.09375 11.796875 17.414062 11.796875 12.890625 C 11.796875 8.367188 15.476562 4.6875 20 4.6875 C 24.523438 4.6875 28.203125 8.367188 28.203125 12.890625 C 28.203125 17.414062 24.523438 21.09375 20 21.09375 Z M 20 21.09375 "/>
<path style=" stroke:none;fill-rule:nonzero;fill:rgb(81.176471%,90.196078%,90.196078%);fill-opacity:1;" d="M 28.203125 12.890625 C 28.203125 8.367188 24.523438 4.6875 20 4.6875 L 20 21.09375 C 24.523438 21.09375 28.203125 17.414062 28.203125 12.890625 Z M 28.203125 12.890625 "/>
<path style=" stroke:none;fill-rule:nonzero;fill:rgb(100%,45.098039%,40%);fill-opacity:1;" d="M 23.515625 11.71875 L 21.171875 11.71875 L 21.171875 9.375 L 18.828125 9.375 L 18.828125 11.71875 L 16.484375 11.71875 L 16.484375 14.0625 L 18.828125 14.0625 L 18.828125 16.40625 L 21.171875 16.40625 L 21.171875 14.0625 L 23.515625 14.0625 Z M 23.515625 11.71875 "/>
<path style=" stroke:none;fill-rule:nonzero;fill:rgb(90.196078%,27.058824%,35.294118%);fill-opacity:1;" d="M 20 9.375 L 20 16.40625 L 21.171875 16.40625 L 21.171875 14.0625 L 23.515625 14.0625 L 23.515625 11.71875 L 21.171875 11.71875 L 21.171875 9.375 Z M 20 9.375 "/>
</g>
</svg>
