<?xml version="1.0" encoding="UTF-8"?>
<svg xmlns="http://www.w3.org/2000/svg" xmlns:xlink="http://www.w3.org/1999/xlink" width="30pt" height="30pt" viewBox="0 0 30 30" version="1.1">
<g id="surface1">
<path style=" stroke:none;fill-rule:nonzero;fill:rgb(100%,45.098039%,40%);fill-opacity:1;" d="M 15 27.070312 L 6.957031 15.035156 C 5.894531 13.445312 5.332031 11.589844 5.332031 9.667969 C 5.332031 4.335938 9.667969 0 15 0 C 20.332031 0 24.667969 4.335938 24.667969 9.667969 C 24.667969 11.589844 24.105469 13.445312 23.042969 15.035156 Z M 15 27.070312 "/>
<path style=" stroke:none;fill-rule:nonzero;fill:rgb(36.078431%,90.196078%,81.176471%);fill-opacity:1;" d="M 10.605469 28.242188 L 19.394531 28.242188 L 19.394531 30 L 10.605469 30 Z M 10.605469 28.242188 "/>
<path style=" stroke:none;fill-rule:nonzero;fill:rgb(23.921569%,80%,75.294118%);fill-opacity:1;" d="M 15 28.242188 L 19.394531 28.242188 L 19.394531 30 L 15 30 Z M 15 28.242188 "/>
<path style=" stroke:none;fill-rule:nonzero;fill:rgb(90.196078%,27.058824%,35.294118%);fill-opacity:1;" d="M 23.042969 15.035156 C 24.105469 13.445312 24.667969 11.589844 24.667969 9.667969 C 24.667969 4.335938 20.332031 0 15 0 L 15 27.070312 Z M 23.042969 15.035156 "/>
<path style=" stroke:none;fill-rule:nonzero;fill:rgb(90.196078%,94.901961%,94.901961%);fill-opacity:1;" d="M 15 15.820312 C 11.609375 15.820312 8.847656 13.058594 8.847656 9.667969 C 8.847656 6.277344 11.609375 3.515625 15 3.515625 C 18.390625 3.515625 21.152344 6.277344 21.152344 9.667969 C 21.152344 13.058594 18.390625 15.820312 15 15.820312 Z M 15 15.820312 "/>
<path style=" stroke:none;fill-rule:nonzero;fill:rgb(81.176471%,90.196078%,90.196078%);fill-opacity:1;" d="M 21.152344 9.667969 C 21.152344 6.277344 18.390625 3.515625 15 3.515625 L 15 15.820312 C 18.390625 15.820312 21.152344 13.058594 21.152344 9.667969 Z M 21.152344 9.667969 "/>
<path style=" stroke:none;fill-rule:nonzero;fill:rgb(100%,45.098039%,40%);fill-opacity:1;" d="M 17.636719 8.789062 L 15.878906 8.789062 L 15.878906 7.03125 L 14.121094 7.03125 L 14.121094 8.789062 L 12.363281 8.789062 L 12.363281 10.546875 L 14.121094 10.546875 L 14.121094 12.304688 L 15.878906 12.304688 L 15.878906 10.546875 L 17.636719 10.546875 Z M 17.636719 8.789062 "/>
<path style=" stroke:none;fill-rule:nonzero;fill:rgb(90.196078%,27.058824%,35.294118%);fill-opacity:1;" d="M 15 7.03125 L 15 12.304688 L 15.878906 12.304688 L 15.878906 10.546875 L 17.636719 10.546875 L 17.636719 8.789062 L 15.878906 8.789062 L 15.878906 7.03125 Z M 15 7.03125 "/>
</g>
</svg>
